<svg width="35" height="35" viewBox="0 0 35 35" fill="none" xmlns="http://www.w3.org/2000/svg">
<path d="M8.65374 4.50877C9.08276 2.7395 11.5991 2.7395 12.0281 4.50877L13.2086 9.37702C13.3617 10.0087 13.8549 10.5019 14.4866 10.6551L19.3549 11.8356C21.1241 12.2646 21.1241 14.7809 19.3549 15.2099L14.4866 16.3904C13.8549 16.5436 13.3617 17.0368 13.2086 17.6684L12.0281 22.5367C11.5991 24.306 9.08276 24.306 8.65374 22.5367L7.47326 17.6684C7.32009 17.0368 6.82688 16.5436 6.1952 16.3904L1.32695 15.2099C-0.442316 14.7809 -0.442317 12.2646 1.32695 11.8356L6.1952 10.6551C6.82688 10.5019 7.32009 10.0087 7.47326 9.37702L8.65374 4.50877Z" fill="black"/>
<path d="M22.8254 21.4984C23.0894 20.4096 24.6379 20.4096 24.9019 21.4984L25.6283 24.4943C25.7226 24.883 26.0261 25.1865 26.4148 25.2807L29.4107 26.0072C30.4995 26.2712 30.4995 27.8197 29.4107 28.0837L26.4148 28.8102C26.0261 28.9044 25.7226 29.2079 25.6283 29.5967L24.9019 32.5925C24.6379 33.6813 23.0894 33.6813 22.8254 32.5925L22.0989 29.5967C22.0047 29.2079 21.7012 28.9044 21.3124 28.8102L18.3166 28.0837C17.2278 27.8197 17.2278 26.2712 18.3166 26.0072L21.3124 25.2807C21.7012 25.1865 22.0047 24.883 22.0989 24.4943L22.8254 21.4984Z" fill="black"/>
<path d="M27.955 4.31429C28.1283 3.59978 29.1445 3.59978 29.3177 4.31429L29.7945 6.28032C29.8563 6.53542 30.0555 6.7346 30.3106 6.79646L32.2766 7.27319C32.9911 7.44645 32.9911 8.46264 32.2766 8.6359L30.3106 9.11264C30.0555 9.17449 29.8563 9.37367 29.7945 9.62877L29.3177 11.5948C29.1445 12.3093 28.1283 12.3093 27.955 11.5948L27.4783 9.62877C27.4164 9.37367 27.2172 9.17449 26.9621 9.11264L24.9961 8.6359C24.2816 8.46264 24.2816 7.44645 24.9961 7.27319L26.9621 6.79646C27.2172 6.7346 27.4164 6.53542 27.4783 6.28032L27.955 4.31429Z" fill="black"/>
<path fill-rule="evenodd" clip-rule="evenodd" d="M28.6364 4.6631L28.2473 6.26773C28.0917 6.90913 27.5909 7.40992 26.9495 7.56545L25.3449 7.95455L26.9495 8.34364C27.5909 8.49917 28.0917 8.99996 28.2473 9.64136L28.6364 11.246L29.0255 9.64136C29.181 8.99996 29.6818 8.49917 30.3232 8.34364L31.9278 7.95455L30.3232 7.56545C29.6818 7.40992 29.181 6.90913 29.0255 6.26773L28.6364 4.6631ZM29.4151 3.79426C29.2171 2.97767 28.0557 2.97767 27.8577 3.79426L27.3128 6.04114C27.2421 6.33269 27.0145 6.56032 26.723 6.63101L24.4761 7.17585C23.6595 7.37386 23.6595 8.53523 24.4761 8.73324L26.723 9.27808C27.0145 9.34877 27.2421 9.5764 27.3128 9.86795L27.8577 12.1148C28.0557 12.9314 29.2171 12.9314 29.4151 12.1148L29.9599 9.86795C30.0306 9.5764 30.2582 9.34877 30.5498 9.27808L32.7967 8.73324C33.6132 8.53523 33.6132 7.37386 32.7967 7.17585L30.5498 6.63101C30.2582 6.56032 30.0306 6.33269 29.9599 6.04114L29.4151 3.79426Z" fill="black"/>
<path d="M9.54545 35C8.66682 35 7.95455 34.2877 7.95455 33.4091C7.95455 32.5305 8.66682 31.8182 9.54545 31.8182C10.4241 31.8182 11.1364 32.5305 11.1364 33.4091C11.1364 34.2877 10.4241 35 9.54545 35Z" fill="black"/>
<path d="M1.59091 28.6364C0.712274 28.6364 -3.84063e-08 27.9241 0 27.0455C3.84063e-08 26.1668 0.712274 25.4545 1.59091 25.4545C2.46954 25.4545 3.18182 26.1668 3.18182 27.0455C3.18182 27.9241 2.46954 28.6364 1.59091 28.6364Z" fill="black"/>
<path d="M19.0909 3.18182C18.2123 3.18182 17.5 2.46954 17.5 1.59091C17.5 0.712274 18.2123 -3.84063e-08 19.0909 0C19.9695 3.84063e-08 20.6818 0.712274 20.6818 1.59091C20.6818 2.46954 19.9695 3.18182 19.0909 3.18182Z" fill="black"/>
<path d="M33.4091 20.6818C32.5305 20.6818 31.8182 19.9695 31.8182 19.0909C31.8182 18.2123 32.5305 17.5 33.4091 17.5C34.2877 17.5 35 18.2123 35 19.0909C35 19.9695 34.2877 20.6818 33.4091 20.6818Z" fill="black"/>
</svg>
