<svg width="60" height="60" viewBox="0 0 60 60" fill="none" xmlns="http://www.w3.org/2000/svg">
<path d="M30 0C30.994 0 31.7997 0.805782 31.7998 1.7998V21.1797C32.9486 21.4128 34.0174 21.8658 34.9619 22.4912L48.668 8.78613C49.3709 8.08332 50.511 8.08323 51.2139 8.78613C51.9166 9.48904 51.9166 10.6291 51.2139 11.332L37.5078 25.0371C38.1336 25.9819 38.5871 27.0509 38.8203 28.2002H58.2002C59.1942 28.2003 60 29.006 60 30C60 30.994 59.1942 31.7997 58.2002 31.7998H38.8203C38.5871 32.9488 38.1334 34.0173 37.5078 34.9619L51.2129 48.667C51.9158 49.3699 51.9158 50.5099 51.2129 51.2129C50.51 51.9157 49.3709 51.9157 48.668 51.2129L34.9619 37.5068C34.0173 38.1325 32.9489 38.5861 31.7998 38.8193V58.2002C31.7997 59.1942 30.994 60 30 60C29.006 60 28.2003 59.1942 28.2002 58.2002V38.8193C27.051 38.5861 25.9818 38.1336 25.0371 37.5078L11.333 51.2129C10.6301 51.9158 9.49007 51.9157 8.78711 51.2129C8.08417 50.5099 8.08417 49.3699 8.78711 48.667L22.4912 34.9619C21.8658 34.0174 21.4128 32.9486 21.1797 31.7998H1.7998C0.805782 31.7997 3.86527e-07 30.994 0 30C0 29.006 0.805782 28.2003 1.7998 28.2002H21.1797C21.4129 27.0509 21.8664 25.9819 22.4922 25.0371L8.78711 11.332C8.08417 10.6291 8.08417 9.48908 8.78711 8.78613C9.48994 8.08368 10.6292 8.08374 11.332 8.78613L25.0371 22.4912C25.9818 21.8656 27.0511 21.4129 28.2002 21.1797V1.7998C28.2003 0.805782 29.006 3.86527e-07 30 0ZM30 27C28.3431 27 27 28.3431 27 30C27 31.6569 28.3431 33 30 33C31.6569 33 33 31.6569 33 30C33 28.3431 31.6569 27 30 27Z" fill="url(#paint0_linear_1161_519)"/>
<defs>
<linearGradient id="paint0_linear_1161_519" x1="30" y1="0" x2="30" y2="60" gradientUnits="userSpaceOnUse">
<stop stop-color="#EAFE62"/>
<stop offset="1" stop-color="#0F971C"/>
</linearGradient>
</defs>
</svg>
