<svg width="32" height="32" viewBox="0 0 32 32" fill="none" xmlns="http://www.w3.org/2000/svg">
<path d="M27.8667 2.66602H4.13341C3.74443 2.66602 3.37138 2.82054 3.09632 3.09559C2.82127 3.37065 2.66675 3.7437 2.66675 4.13268V27.866C2.66675 28.0586 2.70468 28.2493 2.77839 28.4273C2.8521 28.6052 2.96013 28.7669 3.09632 28.9031C3.23252 29.0393 3.3942 29.1473 3.57215 29.221C3.75009 29.2947 3.94081 29.3327 4.13341 29.3327H16.9067V18.9993H13.4401V14.9993H16.9067V11.9993C16.8349 11.295 16.9181 10.5835 17.1504 9.91473C17.3827 9.24595 17.7584 8.63608 18.2514 8.1279C18.7443 7.61972 19.3424 7.22554 20.0038 6.973C20.6653 6.72046 21.3739 6.61568 22.0801 6.66602C23.1179 6.65963 24.1551 6.71305 25.1867 6.82602V10.426H23.0667C21.3867 10.426 21.0667 11.226 21.0667 12.386V14.9593H25.0667L24.5467 18.9594H21.0667V29.3327H27.8667C28.0594 29.3327 28.2501 29.2947 28.428 29.221C28.606 29.1473 28.7676 29.0393 28.9038 28.9031C29.04 28.7669 29.1481 28.6052 29.2218 28.4273C29.2955 28.2493 29.3334 28.0586 29.3334 27.866V4.13268C29.3334 3.94008 29.2955 3.74936 29.2218 3.57141C29.1481 3.39347 29.04 3.23179 28.9038 3.09559C28.7676 2.9594 28.606 2.85137 28.428 2.77766C28.2501 2.70395 28.0594 2.66602 27.8667 2.66602Z" fill="black"/>
</svg>
