<svg width="24" height="24" viewBox="0 0 24 24" fill="none" xmlns="http://www.w3.org/2000/svg">
<path d="M22.6025 10.0035C22.5608 9.77285 22.4395 9.56418 22.2597 9.4139C22.0799 9.26361 21.853 9.18125 21.6186 9.1812H12.2002C12.0689 9.18116 11.9388 9.207 11.8175 9.25725C11.6962 9.30749 11.5859 9.38115 11.493 9.47401C11.4002 9.56688 11.3265 9.67713 11.2763 9.79847C11.226 9.91981 11.2002 10.0499 11.2002 10.1812V14.0494C11.2002 14.1807 11.226 14.3107 11.2763 14.4321C11.3265 14.5534 11.4002 14.6637 11.493 14.7565C11.5859 14.8494 11.6962 14.9231 11.8175 14.9733C11.9388 15.0235 12.0689 15.0494 12.2002 15.0494H16.1626C15.8803 15.5259 15.4932 15.932 15.0308 16.2369C14.1856 16.7727 13.2006 17.0459 12.2002 17.022C11.1627 17.0101 10.1553 16.6716 9.3212 16.0544C8.4871 15.4373 7.86873 14.5729 7.55398 13.5842L7.55369 13.5826C7.20342 12.5559 7.20342 11.4422 7.55369 10.4156L7.55393 10.4139C7.86891 9.42541 8.48736 8.5613 9.32145 7.94434C10.1555 7.32738 11.1628 6.98894 12.2002 6.9771C12.7766 6.96387 13.35 7.06463 13.8873 7.27362C14.4247 7.4826 14.9155 7.79567 15.3315 8.19487C15.5205 8.37543 15.7726 8.47488 16.0339 8.47196C16.2953 8.46904 16.5451 8.36398 16.73 8.17925L19.5981 5.31108C19.6931 5.21618 19.7681 5.1031 19.8184 4.9786C19.8687 4.85409 19.8935 4.72072 19.8911 4.58645C19.8887 4.45217 19.8593 4.31976 19.8046 4.19711C19.7499 4.07446 19.671 3.96409 19.5727 3.87261C17.5769 2.00131 14.936 0.972167 12.2002 0.999556C10.1602 0.993521 8.15897 1.55757 6.42235 2.6281C4.68572 3.69862 3.28272 5.23305 2.37156 7.05834L2.37009 7.06011C1.59761 8.59186 1.19683 10.284 1.20022 11.9996C1.20265 13.7144 1.60313 15.4053 2.37014 16.939L2.37161 16.9408C3.28276 18.7661 4.68576 20.3005 6.42237 21.371C8.15899 22.4415 10.1602 23.0056 12.2002 22.9996C14.8856 23.0675 17.4953 22.1062 19.4949 20.3126L19.4956 20.3121L19.4964 20.3112L19.4966 20.3111L19.4967 20.311C20.5805 19.2683 21.4343 18.0105 22.0032 16.6183C22.5722 15.2262 22.8437 13.7304 22.8003 12.2271C22.8008 11.4815 22.7346 10.7373 22.6025 10.0035ZM12.2002 2.99956C14.0713 2.98134 15.8982 3.5681 17.4087 4.67241L15.955 6.12556C14.8528 5.36261 13.5406 4.96126 12.2002 4.9771C10.9764 4.98339 9.77645 5.31569 8.72375 5.93978C7.67105 6.56388 6.80368 7.45723 6.21091 8.52788L5.1417 7.69914L4.5567 7.24547C5.36147 5.94331 6.48668 4.86926 7.82486 4.12592C9.16303 3.38257 10.6695 2.99477 12.2002 2.99956ZM3.67966 14.9029C3.04034 13.0201 3.04034 10.979 3.67966 9.09624L5.46189 10.4781C5.23402 11.4793 5.23402 12.5189 5.46189 13.5201L3.67966 14.9029ZM12.2002 20.9996C10.6694 21.0043 9.16298 20.6165 7.8248 19.8731C6.48661 19.1297 5.36139 18.0557 4.55662 16.7535L4.93503 16.4599L6.21091 15.4703C6.80341 16.5412 7.6707 17.4348 8.72344 18.0591C9.77618 18.6834 10.9763 19.0158 12.2002 19.022C13.3459 19.0355 14.4785 18.7782 15.5059 18.2712L17.1976 19.5846C15.7098 20.5432 13.9697 21.0359 12.2002 20.9996ZM18.7261 18.2388L18.5431 18.0968L17.1657 17.0276C17.8879 16.2473 18.3734 15.2777 18.5654 14.232C18.5923 14.0877 18.587 13.9392 18.55 13.7971C18.5129 13.655 18.4451 13.5229 18.3512 13.41C18.2573 13.2971 18.1397 13.2062 18.0068 13.1439C17.8739 13.0816 17.7288 13.0493 17.582 13.0494H13.2002V11.1812H20.749C20.7832 11.5269 20.8003 11.8765 20.8003 12.2271C20.8588 14.4159 20.1218 16.5518 18.726 18.2388H18.7261Z" fill="black"/>
</svg>
