<svg width="44" height="44" viewBox="0 0 44 44" fill="none" xmlns="http://www.w3.org/2000/svg">
<path d="M21.7392 3.99463C11.558 3.99463 4.98193 9.86419 4.98193 18.9403C4.98193 28.0164 11.558 33.8859 21.7392 33.8859C21.8116 33.8859 21.8841 33.8859 21.9566 33.8859C21.8841 34.6287 21.7029 35.4439 21.4131 36.3225C21.087 37.3008 21.4131 38.3425 22.2193 38.9765C22.6631 39.3207 23.1794 39.4928 23.6957 39.4928C24.1395 39.4928 24.5834 39.366 24.9819 39.1124C28.2881 37.0109 30.3352 34.5562 31.0961 31.8026C35.8062 29.2935 38.4874 24.6468 38.4874 18.9493C38.4874 9.87325 31.9113 4.00369 21.7301 4.00369L21.7392 3.99463ZM29.3388 29.6468C28.9493 29.828 28.6776 30.1903 28.5961 30.6069C28.1975 32.645 26.6939 34.6196 24.2482 36.3406C24.6468 34.8914 24.7917 33.5508 24.674 32.3461C24.6015 31.6486 24.0127 31.1142 23.3243 31.1142C23.2881 31.1142 23.2609 31.1142 23.2247 31.1142C22.7446 31.1504 22.2555 31.1685 21.7482 31.1685C13.0888 31.1685 7.70838 26.4856 7.70838 18.9403C7.70838 11.395 13.0888 6.71202 21.7482 6.71202C30.4077 6.71202 35.7881 11.395 35.7881 18.9403C35.7881 23.8588 33.5055 27.654 29.3479 29.6468H29.3388Z" fill="black"/>
<path d="M19.6921 18.3968L19.5743 18.3425C19.1214 18.1069 18.75 17.7356 18.5145 17.2827L18.4602 17.1649C18.2337 16.7211 17.5997 16.7211 17.3732 17.1649L17.3189 17.2827C17.0834 17.7356 16.712 18.1069 16.2591 18.3425L16.1414 18.3968C15.6975 18.6233 15.6975 19.2573 16.1414 19.4838L16.2591 19.5381C16.712 19.7736 17.0834 20.145 17.3189 20.5979L17.3732 20.7156C17.5997 21.1595 18.2337 21.1595 18.4602 20.7156L18.5145 20.5979C18.75 20.145 19.1214 19.7736 19.5743 19.5381L19.6921 19.4838C20.1359 19.2573 20.1359 18.6233 19.6921 18.3968Z" fill="black"/>
<path d="M14.4928 18.1794L14.3298 18.0979C13.6957 17.7718 13.1703 17.2555 12.8443 16.6124L12.7627 16.4493C12.4457 15.8243 11.558 15.8243 11.241 16.4493L11.1595 16.6124C10.8334 17.2464 10.3171 17.7718 9.67396 18.0979L9.51092 18.1794C8.88592 18.4964 8.88592 19.3841 9.51092 19.7011L9.67396 19.7827C10.308 20.1088 10.8334 20.6251 11.1595 21.2682L11.241 21.4312C11.558 22.0562 12.4457 22.0562 12.7627 21.4312L12.8443 21.2682C13.1703 20.6341 13.6866 20.1088 14.3298 19.7827L14.4928 19.7011C15.1178 19.3841 15.1178 18.4964 14.4928 18.1794Z" fill="black"/>
<path d="M33.1341 16.3497L32.8442 16.2048C31.9385 15.7428 31.2138 15.0182 30.7519 14.1124L30.6069 13.8225C30.1087 12.8443 29.1124 12.2374 28.0164 12.2374C26.9203 12.2374 25.924 12.8443 25.4167 13.8225L25.2718 14.1124C24.8098 15.0182 24.0852 15.7428 23.1794 16.2048L22.8895 16.3497C21.9113 16.8479 21.3044 17.8443 21.3044 18.9493C21.3044 20.0544 21.9113 21.0417 22.8895 21.549L23.1794 21.6939C24.0852 22.1559 24.8098 22.8805 25.2718 23.7863L25.4167 24.0761C25.9149 25.0544 26.9113 25.6613 28.0164 25.6613C29.1214 25.6613 30.1087 25.0544 30.616 24.0761L30.7609 23.7863C31.2229 22.8805 31.9475 22.1559 32.8533 21.6939L33.1432 21.549C34.1214 21.0508 34.7283 20.0544 34.7283 18.9584C34.7283 17.8624 34.1214 16.866 33.1432 16.3588L33.1341 16.3497ZM31.9022 19.1214L31.6124 19.2664C30.1903 19.991 29.058 21.1232 28.3334 22.5454L28.1885 22.8352C28.1885 22.8352 28.1341 22.9439 28.0164 22.9439C27.8986 22.9439 27.8533 22.8624 27.8443 22.8352L27.6993 22.5454C26.9747 21.1232 25.8424 19.991 24.4203 19.2664L24.1305 19.1214C24.1305 19.1214 24.0218 19.0671 24.0218 18.9493C24.0218 18.8316 24.1033 18.7863 24.1305 18.7772L24.4203 18.6323C25.8424 17.9077 26.9747 16.7754 27.6993 15.3533L27.8443 15.0635C27.8443 15.0635 27.8986 14.9548 28.0164 14.9548C28.1341 14.9548 28.1794 15.0272 28.1885 15.0635L28.3334 15.3533C29.058 16.7754 30.1903 17.9077 31.6124 18.6323L31.9022 18.7772C31.9022 18.7772 32.0109 18.8316 32.0109 18.9493C32.0109 19.0671 31.9294 19.1124 31.9022 19.1214Z" fill="black"/>
</svg>
