<svg width="44" height="44" viewBox="0 0 44 44" fill="none" xmlns="http://www.w3.org/2000/svg">
<path d="M18.5416 17.8533C18.0525 17.5997 17.6539 17.2102 17.4094 16.721L17.346 16.5942C17.1014 16.1141 16.4221 16.1141 16.1775 16.5942L16.1141 16.721C15.8605 17.2102 15.471 17.6087 14.9818 17.8533L14.855 17.9167C14.375 18.1612 14.375 18.8406 14.855 19.0852L14.9818 19.1486C15.471 19.4022 15.8695 19.7917 16.1141 20.2808L16.1775 20.4076C16.4221 20.8877 17.1014 20.8877 17.346 20.4076L17.4094 20.2808C17.663 19.7917 18.0525 19.3931 18.5416 19.1486L18.6684 19.0852C19.1485 18.8406 19.1485 18.1612 18.6684 17.9167L18.5416 17.8533Z" fill="black"/>
<path d="M21.7029 20.9602L21.4855 21.0689C20.625 21.5036 20.625 22.7355 21.4855 23.1794L21.7029 23.2881C22.5815 23.741 23.2971 24.4565 23.75 25.3352L23.8587 25.5525C24.2934 26.4131 25.5253 26.4131 25.9692 25.5525L26.0779 25.3352C26.5308 24.4565 27.2463 23.741 28.125 23.2881L28.3424 23.1794C29.2029 22.7446 29.2029 21.5127 28.3424 21.0689L28.125 20.9602C27.2463 20.5073 26.5308 19.7917 26.0779 18.9131L25.9692 18.6957C25.5344 17.8352 24.3025 17.8352 23.8587 18.6957L23.75 18.9131C23.2971 19.7917 22.5815 20.5073 21.7029 20.9602Z" fill="black"/>
<path d="M35.8514 9.03987L35.5616 8.89494C34.6558 8.43298 33.9311 7.70835 33.4692 6.80255L33.3242 6.5127C32.826 5.53443 31.8297 4.92755 30.7337 4.92755C29.6376 4.92755 28.6413 5.53443 28.134 6.5127L27.9891 6.80255C27.5271 7.70835 26.8025 8.43298 25.8967 8.89494L25.6068 9.03987C24.6286 9.53806 24.0217 10.5344 24.0217 11.6395C24.0217 12.7446 24.6286 13.7319 25.6068 14.2391L25.8967 14.3841C26.8025 14.846 27.5271 15.5707 27.9891 16.4765L28.134 16.7663C28.6322 17.7446 29.6286 18.3515 30.7337 18.3515C31.8387 18.3515 32.826 17.7446 33.3333 16.7663L33.4782 16.4765C33.9402 15.5707 34.6648 14.846 35.5706 14.3841L35.8605 14.2391C36.8387 13.741 37.4456 12.7446 37.4456 11.6486C37.4456 10.5525 36.8387 9.55617 35.8605 9.04893L35.8514 9.03987ZM34.6195 11.8116L34.3297 11.9565C32.9076 12.6812 31.7753 13.8134 31.0507 15.2355L30.9058 15.5254C30.9058 15.5254 30.8514 15.6341 30.7337 15.6341C30.6159 15.6341 30.5706 15.5525 30.5616 15.5254L30.4166 15.2355C29.692 13.8134 28.5597 12.6812 27.1376 11.9565L26.8478 11.8116C26.8478 11.8116 26.7391 11.7573 26.7391 11.6395C26.7391 11.5218 26.8206 11.4765 26.8478 11.4674L27.1376 11.3225C28.5597 10.5978 29.692 9.46559 30.4166 8.04349L30.5616 7.75364C30.5616 7.75364 30.6159 7.64494 30.7337 7.64494C30.8514 7.64494 30.8967 7.71741 30.9058 7.75364L31.0507 8.04349C31.7753 9.46559 32.9076 10.5978 34.3297 11.3225L34.6195 11.4674C34.6195 11.4674 34.7282 11.5218 34.7282 11.6395C34.7282 11.7573 34.6467 11.8026 34.6195 11.8116Z" fill="black"/>
<path d="M34.8731 17.1468C34.1213 17.1468 33.5145 17.7536 33.5145 18.5054C33.5145 25 28.2337 30.2808 21.7391 30.2808C15.2445 30.2808 9.96373 25 9.96373 18.5054C9.96373 12.0109 15.2445 6.73009 21.7391 6.73009C22.8442 6.73009 23.9402 6.88407 24.9909 7.18298C25.7155 7.39132 26.4674 6.97465 26.6666 6.25001C26.875 5.52538 26.4583 4.77357 25.7337 4.57429C24.4384 4.20291 23.0978 4.0127 21.7391 4.0127C13.75 4.0127 7.24634 10.5163 7.24634 18.5054C7.24634 22.3098 8.73185 25.7609 11.1413 28.3515L9.58329 33.0163C9.538 33.1522 9.51083 33.2971 9.51083 33.442C9.51083 35.8515 13.8677 39.3297 21.7391 39.3297C29.6105 39.3297 33.9674 35.8515 33.9674 33.442C33.9674 33.2971 33.9402 33.1522 33.8949 33.0163L32.3369 28.3515C34.7463 25.7609 36.2318 22.3098 36.2318 18.5054C36.2318 17.7536 35.625 17.1468 34.8731 17.1468ZM12.2916 33.4873L13.3514 30.2989C14.4112 31.0507 15.5706 31.6667 16.8116 32.1105L15.788 35.6975C13.7137 34.9728 12.5996 33.9855 12.2916 33.4783V33.4873Z" fill="black"/>
</svg>
