<svg width="44" height="44" viewBox="0 0 44 44" fill="none" xmlns="http://www.w3.org/2000/svg">
<path d="M38.4873 8.49621L38.3333 8.41469C37.7083 8.09766 37.192 7.58136 36.875 6.95636L36.7934 6.80237C36.4764 6.18643 35.6068 6.18643 35.2898 6.80237L35.2083 6.95636C34.8913 7.58136 34.375 8.09766 33.75 8.41469L33.596 8.49621C32.98 8.81324 32.98 9.68281 33.596 9.99984L33.75 10.0814C34.375 10.3984 34.8913 10.9147 35.2083 11.5397L35.2898 11.6937C35.6068 12.3096 36.4764 12.3096 36.7934 11.6937L36.875 11.5397C37.192 10.9147 37.7083 10.3984 38.3333 10.0814L38.4873 9.99984C39.1032 9.68281 39.1032 8.81324 38.4873 8.49621Z" fill="black"/>
<path d="M34.6829 22.9527L34.4655 22.844C33.5869 22.3911 32.8713 21.6756 32.4184 20.7969L32.3097 20.5795C31.875 19.719 30.6431 19.719 30.1992 20.5795L30.0905 20.7969C29.6376 21.6756 28.9221 22.3911 28.0434 22.844L27.826 22.9527C26.9655 23.3875 26.9655 24.6194 27.826 25.0632L28.0434 25.1719C28.9221 25.6248 29.6376 26.3404 30.0905 27.219L30.1992 27.4364C30.634 28.2969 31.8659 28.2969 32.3097 27.4364L32.4184 27.219C32.8713 26.3404 33.5869 25.6248 34.4655 25.1719L34.6829 25.0632C35.5434 24.6285 35.5434 23.3966 34.6829 22.9527Z" fill="black"/>
<path d="M29.221 15.498L29.5108 15.3531C30.4891 14.8549 31.096 13.8585 31.096 12.7535C31.096 11.6484 30.4891 10.6611 29.5108 10.1538L29.221 10.0089C28.3152 9.54694 27.5905 8.8223 27.1286 7.9165L26.9837 7.62665C26.4855 6.64839 25.4891 6.0415 24.3931 6.0415C23.2971 6.0415 22.3007 6.64839 21.7934 7.62665L21.6485 7.9165C21.1866 8.8223 20.4619 9.54694 19.5561 10.0089L19.2663 10.1538C18.288 10.652 17.6811 11.6484 17.6811 12.7444C17.6811 13.8404 18.288 14.8368 19.2663 15.344L19.5561 15.489C20.4619 15.9509 21.1866 16.6756 21.6485 17.5814L21.7934 17.8712C22.2916 18.8495 23.288 19.4564 24.3931 19.4564C25.4981 19.4564 26.4855 18.8495 26.9927 17.8712L27.1376 17.5814C27.5996 16.6756 28.3242 15.9509 29.23 15.489L29.221 15.498ZM24.701 16.3585L24.5561 16.6484C24.5561 16.6484 24.5018 16.7571 24.384 16.7571C24.2663 16.7571 24.221 16.6756 24.2119 16.6484L24.067 16.3585C23.3424 14.9364 22.2101 13.8042 20.788 13.0795L20.4981 12.9346C20.4981 12.9346 20.3895 12.8803 20.3895 12.7625C20.3895 12.6448 20.471 12.5995 20.4981 12.5904L20.788 12.4455C22.2101 11.7209 23.3424 10.5886 24.067 9.1665L24.2119 8.87665C24.2119 8.87665 24.2663 8.76795 24.384 8.76795C24.5018 8.76795 24.5471 8.84042 24.5561 8.87665L24.701 9.1665C25.4257 10.5886 26.5579 11.7209 27.98 12.4455L28.2699 12.5904C28.2699 12.5904 28.3786 12.6448 28.3786 12.7625C28.3786 12.8803 28.2971 12.9256 28.2699 12.9346L27.98 13.0795C26.5579 13.8042 25.4257 14.9364 24.701 16.3585Z" fill="black"/>
<path d="M15.625 17.4274C14.6286 16.431 13.2246 16.0596 11.8568 16.431C10.4981 16.8024 9.4746 17.835 9.12134 19.2027L6.64851 28.7317L5.28982 30.0904C3.31518 32.0651 3.31518 35.2897 5.28982 37.2643L6.21373 38.1882C7.20105 39.1756 8.5054 39.6737 9.80069 39.6737C11.096 39.6737 12.4003 39.1756 13.3876 38.1882L14.7735 36.8024L24.076 33.9401C25.3895 33.5324 26.3677 32.4998 26.7029 31.1683C27.038 29.8368 26.6485 28.46 25.6793 27.4908L15.625 17.4274ZM11.4764 36.268C10.5616 37.1828 9.05793 37.1828 8.14308 36.268L7.21916 35.344C6.30431 34.4292 6.30431 32.9256 7.21916 32.0107L7.78076 31.4491L12.038 35.7064L11.4764 36.268ZM24.076 30.5161C24.0308 30.7064 23.8587 31.1774 23.288 31.3495L14.4384 34.0669L9.38402 29.0125L11.7481 19.8821C11.9021 19.2933 12.3731 19.1031 12.5724 19.0488C12.7626 18.9944 13.2699 18.9219 13.7047 19.3477L23.7681 29.4111C24.1847 29.8277 24.1213 30.3259 24.076 30.5161Z" fill="black"/>
</svg>
