<svg width="44" height="44" viewBox="0 0 44 44" fill="none" xmlns="http://www.w3.org/2000/svg">
<path d="M16.7845 24.3117L16.6305 24.2302C16.0055 23.9131 15.4892 23.3968 15.1722 22.7718L15.0906 22.6178C14.7736 22.0019 13.904 22.0019 13.587 22.6178L13.5055 22.7718C13.1885 23.3968 12.6722 23.9131 12.0472 24.2302L11.8932 24.3117C11.2772 24.6287 11.2772 25.4983 11.8932 25.8153L12.0472 25.8968C12.6722 26.2139 13.1885 26.7302 13.5055 27.3552L13.587 27.5091C13.904 28.1251 14.7736 28.1251 15.0906 27.5091L15.1722 27.3552C15.4892 26.7302 16.0055 26.2139 16.6305 25.8968L16.7845 25.8153C17.4004 25.4983 17.4004 24.6287 16.7845 24.3117Z" fill="black"/>
<path d="M20.6341 20.2265L20.779 19.9367C21.241 19.0309 21.9656 18.3062 22.8714 17.8443L23.1613 17.6994C24.1395 17.2012 24.7464 16.2048 24.7464 15.1088C24.7464 14.0128 24.1395 13.0164 23.1613 12.5091L22.8714 12.3642C21.9656 11.9023 21.241 11.1776 20.779 10.2718L20.6341 9.98197C20.1359 9.00371 19.1395 8.39682 18.0435 8.39682C16.9475 8.39682 15.9511 9.00371 15.4439 9.98197L15.299 10.2718C14.837 11.1776 14.1124 11.9023 13.2066 12.3642L12.9167 12.5091C11.9385 13.0073 11.3316 14.0037 11.3316 15.1088C11.3316 16.2139 11.9385 17.2012 12.9167 17.7084L13.2066 17.8533C14.1124 18.3153 14.837 19.0399 15.299 19.9457L15.4439 20.2356C15.9421 21.2139 16.9385 21.8207 18.0435 21.8207C19.1486 21.8207 20.1359 21.2139 20.6432 20.2356L20.6341 20.2265ZM18.3606 18.7048L18.2156 18.9946C18.2156 18.9946 18.1613 19.1033 18.0435 19.1033C17.9258 19.1033 17.8805 19.0218 17.8714 18.9946L17.7265 18.7048C17.0019 17.2827 15.8696 16.1504 14.4475 15.4258L14.1577 15.2809C14.1577 15.2809 14.049 15.2265 14.049 15.1088C14.049 14.991 14.1305 14.9457 14.1577 14.9367L14.4475 14.7918C15.8696 14.0671 17.0019 12.9349 17.7265 11.5128L17.8714 11.2229C17.8714 11.2229 17.9258 11.1142 18.0435 11.1142C18.1613 11.1142 18.2066 11.1867 18.2156 11.2229L18.3606 11.5128C19.0852 12.9349 20.2174 14.0671 21.6395 14.7918L21.9294 14.9367C21.9294 14.9367 22.0381 14.991 22.0381 15.1088C22.0381 15.2265 21.9566 15.2718 21.9294 15.2809L21.6395 15.4258C20.2174 16.1504 19.0852 17.2827 18.3606 18.7048Z" fill="black"/>
<path d="M16.7845 30.9512L16.6305 30.8696C16.0055 30.5526 15.4892 30.0363 15.1722 29.4113L15.0906 29.2573C14.7736 28.6414 13.904 28.6414 13.587 29.2573L13.5055 29.4113C13.1885 30.0363 12.6722 30.5526 12.0472 30.8696L11.8932 30.9512C11.2772 31.2682 11.2772 32.1378 11.8932 32.4548L12.0472 32.5363C12.6722 32.8533 13.1885 33.3696 13.5055 33.9946L13.587 34.1486C13.904 34.7646 14.7736 34.7646 15.0906 34.1486L15.1722 33.9946C15.4892 33.3696 16.0055 32.8533 16.6305 32.5363L16.7845 32.4548C17.4004 32.1378 17.4004 31.2682 16.7845 30.9512Z" fill="black"/>
<path d="M29.8914 23.7048H19.9276C19.1758 23.7048 18.5689 24.3117 18.5689 25.0635C18.5689 25.8153 19.1758 26.4222 19.9276 26.4222H29.8914C30.6432 26.4222 31.25 25.8153 31.25 25.0635C31.25 24.3117 30.6432 23.7048 29.8914 23.7048Z" fill="black"/>
<path d="M29.8914 30.3443H19.9276C19.1758 30.3443 18.5689 30.9512 18.5689 31.703C18.5689 32.4548 19.1758 33.0617 19.9276 33.0617H29.8914C30.6432 33.0617 31.25 32.4548 31.25 31.703C31.25 30.9512 30.6432 30.3443 29.8914 30.3443Z" fill="black"/>
<path d="M29.8914 17.0562H27.174C26.4222 17.0562 25.8153 17.6631 25.8153 18.4149C25.8153 19.1667 26.4222 19.7736 27.174 19.7736H29.8914C30.6432 19.7736 31.25 19.1667 31.25 18.4149C31.25 17.6631 30.6432 17.0562 29.8914 17.0562Z" fill="black"/>
<path d="M29.8914 10.4168H27.174C26.4222 10.4168 25.8153 11.0236 25.8153 11.7754C25.8153 12.5273 26.4222 13.1341 27.174 13.1341H29.8914C30.6432 13.1341 31.25 12.5273 31.25 11.7754C31.25 11.0236 30.6432 10.4168 29.8914 10.4168Z" fill="black"/>
<path d="M28.0798 4.07617H15.3986C9.65585 4.07617 4.98193 8.75008 4.98193 14.4928V28.9856C4.98193 34.7283 9.65585 39.4023 15.3986 39.4023H28.0798C33.8225 39.4023 38.4964 34.7283 38.4964 28.9856V14.4928C38.4964 8.75008 33.8225 4.07617 28.0798 4.07617ZM35.779 28.9856C35.779 33.2338 32.3279 36.6849 28.0798 36.6849H15.3986C11.1504 36.6849 7.69932 33.2338 7.69932 28.9856V14.4928C7.69932 10.2446 11.1504 6.79356 15.3986 6.79356H28.0798C32.3279 6.79356 35.779 10.2446 35.779 14.4928V28.9856Z" fill="black"/>
</svg>
