<svg width="32" height="32" viewBox="0 0 32 32" fill="none" xmlns="http://www.w3.org/2000/svg">
<path d="M16.0001 12.6927C15.3461 12.6927 14.7068 12.8866 14.163 13.25C13.6192 13.6133 13.1954 14.1297 12.9451 14.7339C12.6948 15.3382 12.6294 16.003 12.757 16.6444C12.8845 17.2859 13.1995 17.8751 13.6619 18.3375C14.1244 18.8 14.7136 19.1149 15.355 19.2425C15.9964 19.3701 16.6613 19.3046 17.2655 19.0543C17.8697 18.804 18.3861 18.3802 18.7495 17.8364C19.1128 17.2927 19.3067 16.6533 19.3067 15.9993C19.3067 15.5651 19.2212 15.1351 19.055 14.7339C18.8889 14.3328 18.6453 13.9682 18.3382 13.6612C18.0312 13.3541 17.6667 13.1106 17.2655 12.9444C16.8643 12.7782 16.4343 12.6927 16.0001 12.6927ZM29.2401 9.42602C29.2331 8.39636 29.0435 7.37611 28.6801 6.41268C28.4125 5.7077 27.9984 5.06747 27.4652 4.53426C26.932 4.00105 26.2917 3.58697 25.5868 3.31935C24.6233 2.95597 23.6031 2.76636 22.5734 2.75935C20.8534 2.66602 20.3467 2.66602 16.0001 2.66602C11.6534 2.66602 11.1467 2.66602 9.42675 2.75935C8.39709 2.76636 7.37684 2.95597 6.41341 3.31935C5.70843 3.58697 5.06821 4.00105 4.535 4.53426C4.00178 5.06747 3.5877 5.7077 3.32008 6.41268C2.9567 7.37611 2.7671 8.39636 2.76008 9.42602C2.66675 11.146 2.66675 11.6527 2.66675 15.9993C2.66675 20.346 2.66675 20.8527 2.76008 22.5727C2.77443 23.606 2.96378 24.6293 3.32008 25.5993C3.58652 26.3011 4.00025 26.9376 4.53341 27.466C5.06434 28.0024 5.70593 28.4165 6.41341 28.6793C7.37684 29.0427 8.39709 29.2323 9.42675 29.2393C11.1467 29.3327 11.6534 29.3327 16.0001 29.3327C20.3467 29.3327 20.8534 29.3327 22.5734 29.2393C23.6031 29.2323 24.6233 29.0427 25.5868 28.6793C26.2942 28.4165 26.9358 28.0024 27.4667 27.466C27.9999 26.9376 28.4136 26.3011 28.6801 25.5993C29.0431 24.6312 29.2327 23.6066 29.2401 22.5727C29.3334 20.8527 29.3334 20.346 29.3334 15.9993C29.3334 11.6527 29.3334 11.146 29.2401 9.42602ZM25.8534 20.0927C25.8106 20.9155 25.635 21.726 25.3334 22.4927C25.0746 23.1323 24.6898 23.7133 24.2019 24.2012C23.714 24.689 23.133 25.0738 22.4934 25.3327C21.7194 25.6175 20.9044 25.7751 20.0801 25.7994C19.0267 25.7994 18.7467 25.7994 16.0001 25.7994C13.2534 25.7994 12.9734 25.7994 11.9201 25.7994C11.0957 25.7751 10.2807 25.6175 9.50675 25.3327C8.84555 25.087 8.24845 24.695 7.76008 24.186C7.27697 23.7077 6.90387 23.1298 6.66675 22.4927C6.38082 21.7195 6.22756 20.9036 6.21341 20.0793C6.21341 19.026 6.21341 18.746 6.21341 15.9993C6.21341 13.2527 6.21341 12.9727 6.21341 11.9193C6.22756 11.0951 6.38082 10.2792 6.66675 9.50602C6.91246 8.84482 7.30445 8.24772 7.81342 7.75935C8.29386 7.27885 8.8711 6.90614 9.50675 6.66602C10.2807 6.38122 11.0957 6.22363 11.9201 6.19935C12.9734 6.19935 13.2534 6.19935 16.0001 6.19935C18.7467 6.19935 19.0267 6.19935 20.0801 6.19935C20.9044 6.22363 21.7194 6.38122 22.4934 6.66602C23.1546 6.91172 23.7517 7.30371 24.2401 7.81268C24.7232 8.29101 25.0963 8.86886 25.3334 9.50602C25.6182 10.28 25.7758 11.095 25.8001 11.9193C25.8001 12.9727 25.8001 13.2527 25.8001 15.9993C25.8001 18.746 25.8934 19.026 25.8534 20.0793V20.0927ZM23.7201 10.1727C23.5613 9.74199 23.311 9.35087 22.9865 9.0263C22.6619 8.70173 22.2708 8.45143 21.8401 8.29268C21.2487 8.0877 20.6259 7.9884 20.0001 7.99935C18.9601 7.99935 18.6667 7.99935 16.0001 7.99935C13.3334 7.99935 13.0401 7.99935 12.0001 7.99935C11.3711 8.0055 10.7482 8.12286 10.1601 8.34602C9.73599 8.49756 9.34901 8.73763 9.02486 9.05028C8.70071 9.36293 8.44683 9.741 8.28008 10.1593C8.08645 10.7532 7.99185 11.3748 8.00008 11.9993C8.00008 13.0393 8.00008 13.3327 8.00008 15.9993C8.00008 18.666 8.00008 18.9593 8.00008 19.9993C8.0133 20.6276 8.13044 21.2493 8.34675 21.8393C8.5055 22.27 8.75579 22.6612 9.08037 22.9857C9.40494 23.3103 9.79606 23.5606 10.2267 23.7194C10.7956 23.9286 11.3943 24.0456 12.0001 24.066C13.0401 24.066 13.3334 24.066 16.0001 24.066C18.6667 24.066 18.9601 24.066 20.0001 24.066C20.6291 24.0599 21.252 23.9425 21.8401 23.7194C22.2708 23.5606 22.6619 23.3103 22.9865 22.9857C23.311 22.6612 23.5613 22.27 23.7201 21.8393C23.9432 21.2513 24.0606 20.6283 24.0667 19.9993C24.0667 18.9593 24.0667 18.666 24.0667 15.9993C24.0667 13.3327 24.0667 13.0393 24.0667 11.9993C24.0671 11.3697 23.9496 10.7456 23.7201 10.1593V10.1727ZM16.0001 21.0927C15.3318 21.0927 14.6702 20.9608 14.053 20.7047C13.4358 20.4486 12.8752 20.0732 12.4033 19.6001C11.9314 19.1269 11.5574 18.5653 11.3029 17.9475C11.0484 17.3296 10.9183 16.6676 10.9201 15.9993C10.9201 14.9914 11.2191 14.0061 11.7794 13.1683C12.3397 12.3304 13.1359 11.6776 14.0674 11.2925C14.9988 10.9074 16.0236 10.8073 17.012 11.0049C18.0004 11.2025 18.9079 11.6889 19.6197 12.4026C20.3314 13.1162 20.8155 14.025 21.0105 15.0139C21.2055 16.0028 21.1028 17.0273 20.7152 17.9577C20.3277 18.8882 19.6728 19.6827 18.8334 20.2408C17.9941 20.7988 17.008 21.0953 16.0001 21.0927ZM21.3334 11.906C21.0387 11.8748 20.7659 11.7356 20.5677 11.5153C20.3694 11.295 20.2597 11.0091 20.2597 10.7127C20.2597 10.4163 20.3694 10.1304 20.5677 9.91006C20.7659 9.68972 21.0387 9.55055 21.3334 9.51935C21.6282 9.55055 21.9009 9.68972 22.0992 9.91006C22.2974 10.1304 22.4071 10.4163 22.4071 10.7127C22.4071 11.0091 22.2974 11.295 22.0992 11.5153C21.9009 11.7356 21.6282 11.8748 21.3334 11.906Z" fill="black"/>
</svg>
