<svg width="32" height="32" viewBox="0 0 32 32" fill="none" xmlns="http://www.w3.org/2000/svg">
<path d="M30.6669 12.9466C30.7328 11.0382 30.3154 9.144 29.4535 7.43998C28.8687 6.74078 28.0572 6.26893 27.1602 6.10665C23.4502 5.77001 19.7249 5.63204 16.0002 5.69331C12.2891 5.62926 8.57714 5.76278 4.8802 6.09331C4.14929 6.22627 3.47289 6.5691 2.93353 7.07998C1.73353 8.18665 1.6002 10.08 1.46687 11.68C1.27341 14.5567 1.27341 17.4432 1.46687 20.32C1.50544 21.2205 1.63952 22.1144 1.86687 22.9866C2.02763 23.6601 2.3529 24.2831 2.81353 24.8C3.35656 25.3379 4.04871 25.7003 4.8002 25.84C7.67475 26.1948 10.5712 26.3419 13.4669 26.28C18.1335 26.3466 22.2269 26.28 27.0669 25.9066C27.8368 25.7755 28.5485 25.4127 29.1069 24.8666C29.4801 24.4932 29.759 24.0361 29.9202 23.5333C30.397 22.0701 30.6312 20.5388 30.6135 19C30.6669 18.2533 30.6669 13.7466 30.6669 12.9466ZM12.9869 19.8V11.5466L20.8802 15.6933C18.6669 16.92 15.7469 18.3066 12.9869 19.8Z" fill="black"/>
</svg>
