<svg width="25" height="24" viewBox="0 0 25 24" fill="none" xmlns="http://www.w3.org/2000/svg">
<path d="M21.6701 2.06012C20.9533 1.93665 20.2274 1.8731 19.5001 1.87012C17.0184 1.86809 14.5886 2.57969 12.5001 3.92012C10.4062 2.59729 7.97674 1.90315 5.50008 1.92012C4.77273 1.9231 4.04689 1.98665 3.33008 2.11012C3.09529 2.1506 2.88267 2.27358 2.7305 2.45691C2.57833 2.64025 2.49662 2.87189 2.50008 3.11012V15.1101C2.49794 15.2571 2.52821 15.4027 2.58873 15.5366C2.64926 15.6705 2.73855 15.7894 2.85026 15.8849C2.96197 15.9803 3.09334 16.05 3.23504 16.089C3.37674 16.1279 3.52528 16.1351 3.67008 16.1101C5.1031 15.862 6.57129 15.9032 7.98815 16.2312C9.40501 16.5592 10.7419 17.1675 11.9201 18.0201L12.0401 18.0901H12.1501C12.261 18.1363 12.3799 18.1601 12.5001 18.1601C12.6202 18.1601 12.7392 18.1363 12.8501 18.0901H12.9601L13.0801 18.0201C14.25 17.1484 15.5831 16.5205 17.0002 16.1735C18.4174 15.8265 19.8897 15.7675 21.3301 16.0001C21.4749 16.0251 21.6234 16.0179 21.7651 15.979C21.9068 15.94 22.0382 15.8703 22.1499 15.7749C22.2616 15.6794 22.3509 15.5605 22.4114 15.4266C22.472 15.2927 22.5022 15.1471 22.5001 15.0001V3.00012C22.4897 2.77228 22.4017 2.55483 22.2507 2.38386C22.0998 2.21289 21.8949 2.09866 21.6701 2.06012ZM11.5001 15.3501C9.64997 14.3768 7.5906 13.8688 5.50008 13.8701C5.17008 13.8701 4.84008 13.8701 4.50008 13.8701V3.87012C4.83314 3.85093 5.16703 3.85093 5.50008 3.87012C7.63347 3.86776 9.7203 4.49381 11.5001 5.67012V15.3501ZM20.5001 13.9101C20.1601 13.9101 19.8301 13.9101 19.5001 13.9101C17.4096 13.9088 15.3502 14.4168 13.5001 15.3901V5.67012C15.2799 4.49381 17.3667 3.86776 19.5001 3.87012C19.8331 3.85093 20.167 3.85093 20.5001 3.87012V13.9101ZM21.6701 18.0601C20.9533 17.9367 20.2274 17.8731 19.5001 17.8701C17.0184 17.8681 14.5886 18.5797 12.5001 19.9201C10.4116 18.5797 7.98172 17.8681 5.50008 17.8701C4.77273 17.8731 4.04689 17.9367 3.33008 18.0601C3.19991 18.0808 3.07511 18.127 2.96285 18.196C2.85059 18.2651 2.75309 18.3557 2.67595 18.4625C2.59882 18.5694 2.54357 18.6905 2.51339 18.8188C2.48321 18.9471 2.47869 19.0801 2.50008 19.2101C2.5509 19.4698 2.70257 19.6988 2.92188 19.8468C3.14118 19.9949 3.41022 20.05 3.67008 20.0001C5.1031 19.752 6.57129 19.7932 7.98815 20.1212C9.40501 20.4492 10.7419 21.0575 11.9201 21.9101C12.0894 22.0307 12.2922 22.0955 12.5001 22.0955C12.708 22.0955 12.9107 22.0307 13.0801 21.9101C14.2583 21.0575 15.5952 20.4492 17.012 20.1212C18.4289 19.7932 19.8971 19.752 21.3301 20.0001C21.5899 20.05 21.859 19.9949 22.0783 19.8468C22.2976 19.6988 22.4493 19.4698 22.5001 19.2101C22.5215 19.0801 22.517 18.9471 22.4868 18.8188C22.4566 18.6905 22.4014 18.5694 22.3242 18.4625C22.2471 18.3557 22.1496 18.2651 22.0373 18.196C21.9251 18.127 21.8003 18.0808 21.6701 18.0601Z" fill="black"/>
</svg>
