<svg width="50" height="50" viewBox="0 0 50 50" fill="none" xmlns="http://www.w3.org/2000/svg">
<g filter="url(#filter0_f_684_2715)">
<path d="M43.7501 22.9164C43.1975 22.9164 42.6676 23.1359 42.2769 23.5266C41.8862 23.9173 41.6667 24.4472 41.6667 24.9997V30.3956L28.5626 17.2706C28.3689 17.0753 28.1385 16.9203 27.8846 16.8145C27.6307 16.7088 27.3584 16.6543 27.0834 16.6543C26.8084 16.6543 26.5361 16.7088 26.2822 16.8145C26.0283 16.9203 25.7979 17.0753 25.6042 17.2706L18.7501 24.1456L7.72923 13.1039C7.33693 12.7116 6.80486 12.4912 6.25006 12.4912C5.69527 12.4912 5.16319 12.7116 4.77089 13.1039C4.37859 13.4962 4.1582 14.0283 4.1582 14.5831C4.1582 15.1379 4.37859 15.6699 4.77089 16.0622L17.2709 28.5622C17.4646 28.7575 17.695 28.9125 17.9489 29.0183C18.2027 29.124 18.475 29.1785 18.7501 29.1785C19.0251 29.1785 19.2974 29.124 19.5513 29.0183C19.8051 28.9125 20.0356 28.7575 20.2292 28.5622L27.0834 21.6872L38.7292 33.3331H33.3334C32.7809 33.3331 32.251 33.5526 31.8603 33.9433C31.4696 34.334 31.2501 34.8639 31.2501 35.4164C31.2501 35.9689 31.4696 36.4988 31.8603 36.8895C32.251 37.2802 32.7809 37.4997 33.3334 37.4997H43.7501C44.0223 37.4964 44.2913 37.4398 44.5417 37.3331C45.0508 37.1217 45.4553 36.7171 45.6667 36.2081C45.7735 35.9576 45.8301 35.6886 45.8334 35.4164V24.9997C45.8334 24.4472 45.6139 23.9173 45.2232 23.5266C44.8325 23.1359 44.3026 22.9164 43.7501 22.9164Z" fill="white"/>
</g>
<defs>
<filter id="filter0_f_684_2715" x="-4" y="-4" width="58" height="58" filterUnits="userSpaceOnUse" color-interpolation-filters="sRGB">
<feFlood flood-opacity="0" result="BackgroundImageFix"/>
<feBlend mode="normal" in="SourceGraphic" in2="BackgroundImageFix" result="shape"/>
<feGaussianBlur stdDeviation="2" result="effect1_foregroundBlur_684_2715"/>
</filter>
</defs>
</svg>
