<svg width="86" height="94" viewBox="0 0 86 94" fill="none" xmlns="http://www.w3.org/2000/svg">
<path d="M46.6728 7.857C47.16 5.86032 48.8364 4.50879 50.6957 4.50879C52.8925 4.50879 54.8557 6.41973 54.8557 9.00813C54.8557 10.7231 53.9745 12.1738 52.7333 12.9311C51.7757 13.5154 51.4731 14.7654 52.0574 15.723C52.6417 16.6807 53.8917 16.9833 54.8493 16.399C57.3093 14.898 58.9182 12.1277 58.9182 9.00813C58.9182 4.38304 55.3376 0.446289 50.6957 0.446289C46.7852 0.446289 43.6135 3.25727 42.7261 6.89396C42.4602 7.98382 43.1281 9.0829 44.218 9.34883C45.3078 9.61477 46.4069 8.94685 46.6728 7.857Z" fill="black"/>
<path fill-rule="evenodd" clip-rule="evenodd" d="M28.4495 22.79C28.4495 17.1809 32.9966 12.6338 38.6057 12.6338C44.2149 12.6338 48.762 17.1809 48.762 22.79C48.762 28.3992 44.2149 32.9463 38.6057 32.9463C32.9966 32.9463 28.4495 28.3992 28.4495 22.79ZM38.6057 16.6963C35.2402 16.6963 32.512 19.4246 32.512 22.79C32.512 26.1555 35.2402 28.8838 38.6057 28.8838C41.9712 28.8838 44.6995 26.1555 44.6995 22.79C44.6995 19.4246 41.9712 16.6963 38.6057 16.6963Z" fill="black"/>
<path d="M40.637 47.165C37.2524 47.165 34.0016 47.5717 30.9669 48.3198C29.8777 48.5883 28.777 47.923 28.5085 46.8338C28.24 45.7446 28.9053 44.6439 29.9945 44.3754C33.3505 43.5481 36.9279 43.1025 40.637 43.1025C44.346 43.1025 47.9234 43.5481 51.2794 44.3754C52.3686 44.6439 53.0339 45.7446 52.7654 46.8338C52.4969 47.923 51.3963 48.5883 50.307 48.3198C47.2723 47.5717 44.0215 47.165 40.637 47.165Z" fill="black"/>
<path fill-rule="evenodd" clip-rule="evenodd" d="M58.9182 53.2588C55.5527 53.2588 52.8245 55.9871 52.8245 59.3525C52.8245 62.718 55.5527 65.4463 58.9182 65.4463C62.2837 65.4463 65.012 62.718 65.012 59.3525C65.012 55.9871 62.2837 53.2588 58.9182 53.2588ZM56.887 59.3525C56.887 58.2307 57.7964 57.3213 58.9182 57.3213C60.04 57.3213 60.9495 58.2307 60.9495 59.3525C60.9495 60.4744 60.04 61.3838 58.9182 61.3838C57.7964 61.3838 56.887 60.4744 56.887 59.3525Z" fill="black"/>
<path fill-rule="evenodd" clip-rule="evenodd" d="M64.0244 38.3819C65.0187 32.7475 58.4016 28.9727 54.0576 32.6962L48.4557 37.4978C48.3967 37.5484 48.3414 37.6015 48.2896 37.657C45.824 37.2322 43.2622 37.0088 40.637 37.0088C31.2653 37.0088 22.7027 39.8552 16.4372 44.5543C12.5538 47.4669 9.51569 51.1276 7.76667 55.279C4.57361 55.0876 4.07446 53.2588 4.07446 51.2275C4.07446 49.1963 6.80273 45.1338 10.1682 45.1338C11.29 45.1338 12.1995 44.2244 12.1995 43.1025C12.1995 41.9807 11.29 41.0713 10.1682 41.0713C4.55907 41.0713 0.0119629 45.6184 0.0119629 51.2275C0.0119629 55.279 1.68679 58.4585 6.53458 59.2268C6.25295 60.5866 6.10571 61.9851 6.10571 63.415C6.10571 70.9287 10.1711 77.5762 16.4372 82.2758C16.713 82.4826 16.9931 82.6857 17.2776 82.8853V87.79C17.2776 91.1555 20.0059 93.8838 23.3713 93.8838H26.7147C29.2064 93.8838 31.4471 92.3667 32.3726 90.0532L32.7416 89.1305C35.2817 89.583 37.9254 89.8213 40.637 89.8213C43.3485 89.8213 45.9923 89.583 48.5323 89.1305L48.9014 90.0532C49.8268 92.3667 52.0675 93.8838 54.5593 93.8838H57.9026C61.2681 93.8838 63.9963 91.1555 63.9963 87.79V82.8853C64.2808 82.6857 64.561 82.4826 64.8367 82.2758C68.6418 79.422 71.6353 75.8499 73.3999 71.8017L76.9676 73.2288C80.9703 74.8299 85.3245 71.882 85.3245 67.5709V63.3218C85.3245 59.0106 80.9703 56.0627 76.9676 57.6638L74.6018 58.6101C73.2801 53.0806 69.7292 48.2237 64.8367 44.5543C64.2898 44.1442 63.7255 43.7482 63.1447 43.3669L64.0244 38.3819ZM59.3972 41.2262L60.0237 37.6759C60.3551 35.7978 58.1495 34.5395 56.7014 35.7806L53.1811 38.7981C55.3675 39.4477 57.4487 40.2632 59.3972 41.2262ZM75.158 62.7631C75.1648 62.9797 75.1682 63.197 75.1682 63.415C75.1682 64.961 74.9961 66.4703 74.6681 67.9336L78.4763 69.4568C79.8106 69.9905 81.262 69.0079 81.262 67.5709V63.3218C81.262 61.8847 79.8106 60.9021 78.4763 61.4358L75.158 62.7631ZM18.8747 47.8043C13.3782 51.9267 10.1682 57.4668 10.1682 63.415C10.1682 69.3633 13.3782 74.9033 18.8747 79.0258C24.3719 83.1487 32.0593 85.7588 40.637 85.7588C49.2146 85.7588 56.902 83.1487 62.3992 79.0258C67.8958 74.9033 71.1057 69.3633 71.1057 63.415C71.1057 57.4668 67.8958 51.9267 62.3992 47.8043C56.902 43.6814 49.2146 41.0713 40.637 41.0713C32.0593 41.0713 24.3719 43.6814 18.8747 47.8043ZM21.3401 85.3331C23.6281 86.5108 26.1074 87.4821 28.7319 88.2163L28.6006 88.5444C28.2921 89.3156 27.5452 89.8213 26.7147 89.8213H23.3713C22.2495 89.8213 21.3401 88.9119 21.3401 87.79V85.3331ZM52.542 88.2163L52.6733 88.5444C52.9818 89.3156 53.7287 89.8213 54.5593 89.8213H57.9026C59.0244 89.8213 59.9338 88.9119 59.9338 87.79V85.3331C57.6458 86.5108 55.1665 87.4821 52.542 88.2163Z" fill="black"/>
</svg>
