<svg width="103" height="101" viewBox="0 0 103 101" fill="none" xmlns="http://www.w3.org/2000/svg">
<path d="M41.4375 15.8377C42.43 16.1331 42.9951 17.1771 42.6998 18.1696C42.3972 19.1861 42.2341 20.2647 42.2341 21.3848C42.2341 22.5048 42.3972 23.5835 42.6998 24.5999C42.9951 25.5924 42.43 26.6365 41.4375 26.9319C40.445 27.2273 39.4009 26.6621 39.1056 25.6696C38.7008 24.3097 38.4841 22.8709 38.4841 21.3848C38.4841 19.8987 38.7008 18.4599 39.1056 17.0999C39.4009 16.1074 40.445 15.5423 41.4375 15.8377Z" fill="black"/>
<path d="M65.5308 15.8377C66.5233 15.5423 67.5673 16.1074 67.8627 17.0999C68.2674 18.4599 68.4841 19.8987 68.4841 21.3848C68.4841 22.8709 68.2674 24.3097 67.8627 25.6696C67.5673 26.6621 66.5233 27.2273 65.5308 26.9319C64.5383 26.6365 63.9731 25.5924 64.2685 24.5999C64.571 23.5835 64.7341 22.5048 64.7341 21.3848C64.7341 20.2647 64.571 19.1861 64.2685 18.1696C63.9731 17.1771 64.5383 16.1331 65.5308 15.8377Z" fill="black"/>
<path d="M55.3591 8.25977C55.3591 7.22423 54.5197 6.38477 53.4841 6.38477C52.4486 6.38477 51.6091 7.22423 51.6091 8.25977V8.5543C48.4047 9.44766 45.9841 12.2798 45.9841 15.7598C45.9841 19.5576 48.8672 22.5839 52.5057 23.1605C52.695 23.2249 52.898 23.2598 53.1091 23.2598C55.5031 23.2598 57.2341 25.0509 57.2341 27.0098C57.2341 28.9687 55.5031 30.7598 53.1091 30.7598C51.4991 30.7598 50.1518 29.9275 49.4727 28.78C48.9452 27.8889 47.7952 27.5941 46.9041 28.1215C46.013 28.649 45.7181 29.799 46.2456 30.6901C47.3729 32.5947 49.3285 33.9542 51.6091 34.3736V34.5098C51.6091 35.5453 52.4486 36.3848 53.4841 36.3848C54.5197 36.3848 55.3591 35.5453 55.3591 34.5098V34.1963C58.5554 33.2857 60.9841 30.4841 60.9841 27.0098C60.9841 23.1818 58.0358 20.1704 54.3609 19.6053C54.1747 19.5433 53.9755 19.5098 53.7685 19.5098C51.4522 19.5098 49.7341 17.7448 49.7341 15.7598C49.7341 13.7748 51.4522 12.0098 53.7685 12.0098C55.4249 12.0098 56.8048 12.9306 57.4314 14.1863C57.8939 15.1129 59.0198 15.4891 59.9464 15.0267C60.873 14.5643 61.2492 13.4383 60.7868 12.5118C59.7425 10.4193 57.7385 8.89336 55.3591 8.41682V8.25977Z" fill="black"/>
<path fill-rule="evenodd" clip-rule="evenodd" d="M32.8591 21.3848C32.8591 9.99389 42.0933 0.759766 53.4841 0.759766C64.875 0.759766 74.1091 9.99389 74.1091 21.3848C74.1091 32.7756 64.875 42.0098 53.4841 42.0098C42.0933 42.0098 32.8591 32.7756 32.8591 21.3848ZM53.4841 4.50977C44.1643 4.50977 36.6091 12.065 36.6091 21.3848C36.6091 30.7046 44.1643 38.2598 53.4841 38.2598C62.8039 38.2598 70.3591 30.7046 70.3591 21.3848C70.3591 12.065 62.8039 4.50977 53.4841 4.50977Z" fill="black"/>
<path fill-rule="evenodd" clip-rule="evenodd" d="M11.2966 20.4473C11.2966 20.3905 11.2941 20.3344 11.2892 20.279L15.5958 24.5856C16.328 25.3178 17.5152 25.3178 18.2475 24.5856C18.9797 23.8534 18.9797 22.6662 18.2475 21.9339L10.7475 14.4339C10.0152 13.7017 8.82804 13.7017 8.09581 14.4339L0.595806 21.9339C-0.136427 22.6662 -0.136427 23.8534 0.595806 24.5856C1.32804 25.3178 2.51522 25.3178 3.24746 24.5856L7.55408 20.279C7.54915 20.3344 7.54663 20.3905 7.54663 20.4473V83.8049C4.79804 84.9175 2.85913 87.6122 2.85913 90.7598C2.85913 94.9019 6.217 98.2598 10.3591 98.2598C13.8538 98.2598 16.7903 95.8696 17.6228 92.6348H32.8591V96.3848C32.8591 97.4203 33.6986 98.2598 34.7341 98.2598C35.7697 98.2598 36.6091 97.4203 36.6091 96.3848V92.6348H55.3591V96.3848C55.3591 97.4203 56.1986 98.2598 57.2341 98.2598C58.2697 98.2598 59.1091 97.4203 59.1091 96.3848V92.6348H77.8591V96.3848C77.8591 97.4203 78.6986 98.2598 79.7341 98.2598C80.7697 98.2598 81.6091 97.4203 81.6091 96.3848V92.6348H95.6716C95.7284 92.6348 95.7845 92.6322 95.8399 92.6273L91.5333 96.9339C90.8011 97.6662 90.8011 98.8534 91.5333 99.5856C92.2655 100.318 93.4527 100.318 94.185 99.5856L101.685 92.0856C102.417 91.3534 102.417 90.1662 101.685 89.4339L94.185 81.9339C93.4527 81.2017 92.2655 81.2017 91.5333 81.9339C90.8011 82.6662 90.8011 83.8534 91.5333 84.5856L95.8399 88.8922C95.7845 88.8873 95.7284 88.8848 95.6716 88.8848H81.6091V85.1348C81.6091 84.0992 80.7697 83.2598 79.7341 83.2598C78.6986 83.2598 77.8591 84.0992 77.8591 85.1348V88.8848H59.1091V85.1348C59.1091 84.0992 58.2697 83.2598 57.2341 83.2598C56.1986 83.2598 55.3591 84.0992 55.3591 85.1348V88.8848H36.6091V85.1348C36.6091 84.0992 35.7697 83.2598 34.7341 83.2598C33.6986 83.2598 32.8591 84.0992 32.8591 85.1348V88.8848H17.6228C16.8659 85.9438 14.37 83.701 11.2966 83.3178V20.4473ZM97.5392 90.5915C97.5441 90.6469 97.5466 90.703 97.5466 90.7598C97.5466 90.8165 97.5441 90.8726 97.5392 90.9281L97.7075 90.7598L97.5392 90.5915ZM9.42163 18.4114L9.58993 18.5797C9.53449 18.5748 9.47836 18.5723 9.42163 18.5723C9.36491 18.5723 9.30877 18.5748 9.25333 18.5797L9.42163 18.4114ZM10.3591 87.0098C12.4302 87.0098 14.1091 88.6887 14.1091 90.7598C14.1091 92.8308 12.4302 94.5098 10.3591 94.5098C8.28806 94.5098 6.60913 92.8308 6.60913 90.7598C6.60913 88.6887 8.28806 87.0098 10.3591 87.0098Z" fill="black"/>
<path fill-rule="evenodd" clip-rule="evenodd" d="M94.7341 28.8848C90.592 28.8848 87.2341 32.2426 87.2341 36.3848C87.2341 37.0766 87.3278 37.7465 87.5032 38.3826C87.3872 38.427 87.2739 38.4836 87.165 38.5529L76.8525 45.1154C76.5564 45.3039 76.3191 45.5716 76.1676 45.8883L66.9985 65.06L58.56 56.6214C58.1907 56.2521 57.6841 56.0536 57.1622 56.0737C56.6403 56.0937 56.1504 56.3305 55.8105 56.727L45.773 68.4375L35.0078 59.3284C34.6228 59.0026 34.1227 58.8457 33.6206 58.8931C33.1185 58.9404 32.6566 59.188 32.3393 59.58L16.4018 79.2675C15.7502 80.0724 15.8745 81.2531 16.6794 81.9046C17.4843 82.5562 18.6649 82.4319 19.3165 81.627L34.0483 63.4289L44.773 72.5036C45.5599 73.1695 46.7369 73.0752 47.4077 72.2925L57.34 60.7048L66.2208 69.5856C66.6511 70.0159 67.2634 70.2106 67.8632 70.1079C68.463 70.0051 68.9756 69.6177 69.2381 69.0687L79.3189 47.9908L89.1783 41.7166C89.2359 41.6799 89.2909 41.6406 89.3432 41.5989C90.7067 43.0085 92.6181 43.8848 94.7341 43.8848C98.8763 43.8848 102.234 40.5269 102.234 36.3848C102.234 32.2426 98.8763 28.8848 94.7341 28.8848ZM90.9841 36.3848C90.9841 34.3137 92.6631 32.6348 94.7341 32.6348C96.8052 32.6348 98.4841 34.3137 98.4841 36.3848C98.4841 38.4558 96.8052 40.1348 94.7341 40.1348C92.6631 40.1348 90.9841 38.4558 90.9841 36.3848Z" fill="black"/>
</svg>
