<svg width="90" height="76" viewBox="0 0 90 76" fill="none" xmlns="http://www.w3.org/2000/svg">
<path fill-rule="evenodd" clip-rule="evenodd" d="M44.0581 1.69466C45.5752 0.405169 47.8032 0.405161 49.3203 1.69466L62.9392 13.2707V9.23352C62.9392 6.42895 65.2128 4.1554 68.0173 4.1554C70.8219 4.1554 73.0955 6.42895 73.0955 9.23352V21.9036L84.4192 31.5288C87.2993 33.9768 85.5681 38.6866 81.7882 38.6866H56.8455C55.7236 38.6866 54.8142 37.7772 54.8142 36.6554C54.8142 35.5336 55.7236 34.6241 56.8455 34.6241L81.7882 34.6241L46.6892 4.79004L11.5903 34.6241H36.533C37.6548 34.6241 38.5642 35.5336 38.5642 36.6554C38.5642 37.7772 37.6548 38.6866 36.533 38.6866L20.283 38.6866L11.5903 38.6866C7.8103 38.6866 6.07909 33.9769 8.9592 31.5288L44.0581 1.69466ZM69.033 18.4504V9.23352C69.033 8.67261 68.5782 8.2179 68.0173 8.2179C67.4564 8.2179 67.0017 8.67261 67.0017 9.23352V16.7239L69.033 18.4504Z" fill="black"/>
<path fill-rule="evenodd" clip-rule="evenodd" d="M20.283 38.6866L20.283 69.1554C20.283 70.2772 21.1925 71.1866 22.3143 71.1866H26.3767V50.8741C26.3767 47.5087 29.105 44.7804 32.4705 44.7804H40.5955C43.9609 44.7804 46.6892 47.5087 46.6892 50.8741V71.1866H71.0643C72.1861 71.1866 73.0955 70.2772 73.0955 69.1554V38.6867H77.158V69.1554C77.158 69.8676 77.0358 70.5513 76.8113 71.1866H87.3142C88.436 71.1866 89.3455 72.0961 89.3455 73.2179C89.3455 74.3397 88.436 75.2491 87.3142 75.2491H72.0798C71.9533 75.2491 71.8294 75.2376 71.7093 75.2154C71.4973 75.2377 71.2821 75.2491 71.0643 75.2491H22.3143C18.9488 75.2491 16.2205 72.5209 16.2205 69.1554L16.2205 38.6867L20.283 38.6866ZM36.533 61.0304C36.533 59.9086 37.4424 58.9991 38.5642 58.9991H42.6267V50.8741C42.6267 49.7523 41.7173 48.8429 40.5955 48.8429H32.4705C31.3486 48.8429 30.4392 49.7523 30.4392 50.8741V71.1866H42.6267V63.0616H38.5642C37.4424 63.0616 36.533 62.1522 36.533 61.0304Z" fill="black"/>
<path d="M3.01733 71.1866C1.89551 71.1866 0.986084 72.0961 0.986084 73.2179C0.986084 74.3397 1.89551 75.2491 3.01733 75.2491H10.1267C11.2485 75.2491 12.158 74.3397 12.158 73.2179C12.158 72.0961 11.2485 71.1866 10.1267 71.1866H3.01733Z" fill="black"/>
<path fill-rule="evenodd" clip-rule="evenodd" d="M50.7517 50.8741C50.7517 47.5087 53.48 44.7804 56.8455 44.7804H62.9392C66.3047 44.7804 69.033 47.5087 69.033 50.8741V61.0304C69.033 64.3959 66.3047 67.1241 62.9392 67.1241H56.8455C53.48 67.1241 50.7517 64.3959 50.7517 61.0304V50.8741ZM56.8455 48.8429C55.7236 48.8429 54.8142 49.7523 54.8142 50.8741V61.0304C54.8142 62.1522 55.7236 63.0616 56.8455 63.0616H62.9392C64.061 63.0616 64.9705 62.1522 64.9705 61.0304V50.8741C64.9705 49.7523 64.061 48.8429 62.9392 48.8429H56.8455Z" fill="black"/>
<path fill-rule="evenodd" clip-rule="evenodd" d="M46.6892 14.3116C42.2019 14.3116 38.5642 17.9493 38.5642 22.4366C38.5642 26.924 42.2019 30.5616 46.6892 30.5616C51.1765 30.5616 54.8142 26.924 54.8142 22.4366C54.8142 17.9493 51.1765 14.3116 46.6892 14.3116ZM42.6267 22.4366C42.6267 20.193 44.4456 18.3741 46.6892 18.3741C48.9329 18.3741 50.7517 20.193 50.7517 22.4366C50.7517 24.6803 48.9329 26.4991 46.6892 26.4991C44.4456 26.4991 42.6267 24.6803 42.6267 22.4366Z" fill="black"/>
</svg>
