<svg width="82" height="82" viewBox="0 0 82 82" fill="none" xmlns="http://www.w3.org/2000/svg">
<path d="M28.1321 36.5066C29.1246 36.802 29.6897 37.846 29.3943 38.8386C29.0918 39.855 28.9287 40.9337 28.9287 42.0537C28.9287 43.1738 29.0918 44.2524 29.3943 45.2689C29.6897 46.2614 29.1246 47.3054 28.1321 47.6008C27.1396 47.8962 26.0955 47.3311 25.8001 46.3386C25.3954 44.9786 25.1787 43.5398 25.1787 42.0537C25.1787 40.5676 25.3954 39.1288 25.8001 37.7689C26.0955 36.7764 27.1396 36.2112 28.1321 36.5066Z" fill="black"/>
<path d="M52.2253 36.5066C53.2179 36.2112 54.2619 36.7764 54.5573 37.7689C54.962 39.1288 55.1787 40.5676 55.1787 42.0537C55.1787 43.5398 54.962 44.9786 54.5573 46.3386C54.2619 47.3311 53.2179 47.8962 52.2253 47.6008C51.2328 47.3054 50.6677 46.2614 50.9631 45.2689C51.2656 44.2524 51.4287 43.1738 51.4287 42.0537C51.4287 40.9337 51.2656 39.855 50.9631 38.8386C50.6677 37.846 51.2328 36.802 52.2253 36.5066Z" fill="black"/>
<path d="M42.0537 28.9287C42.0537 27.8932 41.2142 27.0537 40.1787 27.0537C39.1432 27.0537 38.3037 27.8932 38.3037 28.9287V29.2232C35.0993 30.1166 32.6787 32.9487 32.6787 36.4287C32.6787 40.2266 35.5617 43.2528 39.2003 43.8295C39.3896 43.8938 39.5926 43.9287 39.8037 43.9287C42.1977 43.9287 43.9287 45.7198 43.9287 47.6787C43.9287 49.6376 42.1977 51.4287 39.8037 51.4287C38.1937 51.4287 36.8464 50.5964 36.1673 49.449C35.6398 48.5578 34.4898 48.263 33.5987 48.7905C32.7075 49.3179 32.4127 50.4679 32.9402 51.3591C34.0675 53.2636 36.0231 54.6231 38.3037 55.0425V55.1787C38.3037 56.2142 39.1432 57.0537 40.1787 57.0537C41.2142 57.0537 42.0537 56.2142 42.0537 55.1787V54.8652C45.25 53.9547 47.6787 51.153 47.6787 47.6787C47.6787 43.8507 44.7304 40.8393 41.0555 40.2742C40.8693 40.2123 40.6701 40.1787 40.463 40.1787C38.1467 40.1787 36.4287 38.4137 36.4287 36.4287C36.4287 34.4437 38.1467 32.6787 40.463 32.6787C42.1195 32.6787 43.4994 33.5995 44.126 34.8553C44.5884 35.7818 45.7144 36.1581 46.641 35.6957C47.5675 35.2333 47.9438 34.1073 47.4814 33.1807C46.4371 31.0882 44.433 29.5623 42.0537 29.0858V28.9287Z" fill="black"/>
<path fill-rule="evenodd" clip-rule="evenodd" d="M41.1162 81.4287C19.2514 81.4287 1.45232 64.0216 0.82104 42.3097C0.809614 42.226 0.803711 42.1406 0.803711 42.0537C0.803711 41.9978 0.806157 41.9425 0.810948 41.8878C0.80613 41.6312 0.803711 41.374 0.803711 41.1162C0.803711 18.8522 18.8522 0.803711 41.1162 0.803711C63.3802 0.803711 81.4287 18.8522 81.4287 41.1162C81.4287 63.3802 63.3802 81.4287 41.1162 81.4287ZM39.2412 4.60096C35.7121 4.77922 32.315 5.45787 29.1194 6.56738L35.1399 22.0486C36.461 21.7169 37.8327 21.5126 39.2412 21.4496V4.60096ZM42.9912 6.58957V4.60096C43.6116 4.6323 44.2279 4.6791 44.8398 4.74099L42.9912 6.58957ZM42.9912 11.8929V15.9646L52.5716 6.38417C51.531 6.04116 50.4698 5.7436 49.3902 5.49386L42.9912 11.8929ZM56.3777 7.88141L42.9912 21.2679V21.6189C44.039 21.7617 45.0618 21.9833 46.0534 22.2774L59.0718 9.25897C58.1956 8.76404 57.2969 8.30422 56.3777 7.88141ZM62.3128 11.3213L49.8186 23.8155C50.6929 24.2785 51.5298 24.8026 52.3238 25.382L64.6078 13.098C63.8672 12.4764 63.1016 11.8836 62.3128 11.3213ZM67.3552 15.6538L55.146 27.8631C55.8094 28.5626 56.4243 29.3085 56.9853 30.0955L69.2808 17.8C68.667 17.0595 68.0246 16.3435 67.3552 15.6538ZM71.5453 20.8388L58.9306 33.4535C59.3692 34.4082 59.737 35.4021 60.0273 36.4285L73.089 23.3668C72.6079 22.502 72.0927 21.6587 71.5453 20.8388ZM74.826 26.9331L60.7764 40.9827C60.7945 41.3374 60.8037 41.6945 60.8037 42.0537C60.8037 43.1504 60.7181 44.2271 60.5532 45.2775L75.9273 29.9035C75.6022 28.8935 75.2344 27.9026 74.826 26.9331ZM77.0107 34.1234L56.6023 54.5318C56.551 54.5992 56.4993 54.6663 56.4472 54.733L58.46 56.7458L77.5199 37.6859C77.4077 36.4804 77.2371 35.292 77.0107 34.1234ZM77.6373 42.8718L61.1116 59.3975L63.1475 61.4333L77.1324 47.4484C77.3936 45.9522 77.5639 44.4247 77.6373 42.8718ZM74.9964 54.8876L65.7991 64.085L67.8128 66.0986C70.8461 62.8584 73.2965 59.0657 74.9964 54.8876ZM53.8807 57.4698L65.1133 68.7024C58.6916 74.2933 50.2993 77.6787 41.1162 77.6787C31.9332 77.6787 23.5408 74.2933 17.1192 68.7024L27.4994 58.3222C30.9971 61.0521 35.3979 62.6787 40.1787 62.6787C45.438 62.6787 50.2375 60.7102 53.8807 57.4698ZM19.6378 43.9287H4.66028C5.3105 52.4763 8.89973 60.2024 14.4197 66.0986L24.7626 55.7557C21.9116 52.5503 20.0452 48.4499 19.6378 43.9287ZM25.6447 7.97882L31.5999 23.292C30.1324 23.9641 28.7575 24.8033 27.4994 25.7852L16.1338 14.4197C18.9288 11.8031 22.1349 9.62035 25.6447 7.97882ZM13.53 17.1192L24.7626 28.3518C23.6755 29.574 22.7315 30.9265 21.957 32.3828L7.48252 26.7538C8.99281 23.2216 11.0433 19.9755 13.53 17.1192ZM6.18806 30.274L20.5056 35.8419C20.0677 37.2299 19.7727 38.6812 19.6378 40.1787H4.5655C4.65209 36.738 5.21401 33.4154 6.18806 30.274ZM40.1787 25.1787C30.8589 25.1787 23.3037 32.7339 23.3037 42.0537C23.3037 51.3735 30.8589 58.9287 40.1787 58.9287C49.4985 58.9287 57.0537 51.3735 57.0537 42.0537C57.0537 32.7339 49.4985 25.1787 40.1787 25.1787Z" fill="black"/>
</svg>
