<svg width="75" height="92" viewBox="0 0 75 92" fill="none" xmlns="http://www.w3.org/2000/svg">
<path d="M18.5757 3.96387C10.8092 3.96387 4.51318 10.2599 4.51318 18.0264C4.51318 18.3048 4.52125 18.5812 4.53715 18.8553C4.59712 19.8891 3.80768 20.7758 2.77388 20.8357C1.74008 20.8957 0.853413 20.1062 0.793446 19.0724C0.773356 18.7261 0.763184 18.3773 0.763184 18.0264C0.763184 8.1888 8.73811 0.213867 18.5757 0.213867C18.9266 0.213867 19.2754 0.22404 19.6218 0.24413C20.6556 0.304097 21.445 1.19077 21.385 2.22456C21.3251 3.25836 20.4384 4.0478 19.4046 3.98784C19.1305 3.97194 18.8542 3.96387 18.5757 3.96387Z" fill="black"/>
<path d="M21.3806 9.46259C21.4735 10.4939 20.7128 11.4054 19.6814 11.4983C15.6367 11.8628 12.4121 15.0874 12.0476 19.1321C11.9547 20.1635 11.0433 20.9242 10.0119 20.8313C8.98055 20.7383 8.21981 19.8269 8.31275 18.7955C8.83992 12.9456 13.495 8.2906 19.3449 7.76344C20.3762 7.6705 21.2876 8.43123 21.3806 9.46259Z" fill="black"/>
<path fill-rule="evenodd" clip-rule="evenodd" d="M37.3257 34.9014C38.3612 34.9014 39.2007 35.7408 39.2007 36.7764V39.5889H43.8882C44.9237 39.5889 45.7632 40.4283 45.7632 41.4639C45.7632 42.4994 44.9237 43.3389 43.8882 43.3389H39.2007V47.0889H40.1382C41.0632 47.0889 42.4091 47.351 43.5775 48.1922C44.8416 49.1024 45.7632 50.6028 45.7632 52.7139C45.7632 55.1415 44.7969 56.7649 43.295 57.6231C42.0359 58.3426 40.6747 58.3399 40.1854 58.3389L40.1382 58.3389H39.2007V62.0889C39.2007 63.1244 38.3612 63.9639 37.3257 63.9639C36.2902 63.9639 35.4507 63.1244 35.4507 62.0889V58.3389H30.7632C29.7276 58.3389 28.8882 57.4994 28.8882 56.4639C28.8882 55.4283 29.7276 54.5889 30.7632 54.5889H35.4507V50.8389H34.5132C33.5881 50.8389 32.2423 50.5768 31.0739 49.7355C29.8098 48.8254 28.8882 47.325 28.8882 45.2139C28.8882 43.1028 29.8098 41.6024 31.0739 40.6922C32.2423 39.851 33.5881 39.5889 34.5132 39.5889H35.4507V36.7764C35.4507 35.7408 36.2902 34.9014 37.3257 34.9014ZM34.5132 43.3389H35.4507V47.0889H34.5132C34.1882 47.0889 33.6591 46.976 33.265 46.6922C32.9666 46.4774 32.6382 46.1028 32.6382 45.2139C32.6382 44.325 32.9666 43.9504 33.265 43.7355C33.6591 43.4518 34.1882 43.3389 34.5132 43.3389ZM39.2007 54.5889V50.8389H40.1382C40.4631 50.8389 40.9923 50.9518 41.3864 51.2355C41.6848 51.4504 42.0132 51.825 42.0132 52.7139C42.0132 53.4192 41.8813 53.8069 41.7759 54.0067C41.6778 54.1926 41.5625 54.294 41.4345 54.3672C41.0961 54.5605 40.6326 54.5889 40.1382 54.5889H39.2007Z" fill="black"/>
<path d="M32.6382 73.3389C32.6382 72.3033 33.4777 71.4639 34.5132 71.4639H40.1382C41.1737 71.4639 42.0132 72.3033 42.0132 73.3389C42.0132 74.3744 41.1737 75.2139 40.1382 75.2139H34.5132C33.4777 75.2139 32.6382 74.3744 32.6382 73.3389Z" fill="black"/>
<path fill-rule="evenodd" clip-rule="evenodd" d="M17.6382 22.7139C17.6382 19.6073 20.1566 17.0889 23.2632 17.0889H51.3882C54.4948 17.0889 57.0132 19.6073 57.0132 22.7139V30.8278C57.82 30.4355 58.7583 30.2139 59.8257 30.2139C61.4044 30.2139 62.7008 30.6987 63.7069 31.5036C64.6837 32.285 65.2849 33.2848 65.658 34.1802C66.0318 35.0774 66.2098 35.9484 66.2971 36.577C66.3414 36.8962 66.3641 37.1654 66.3757 37.3608C66.3815 37.4587 66.3847 37.539 66.3863 37.5986L66.3877 37.8457L66.3882 37.9409V45.2139C66.3882 46.2603 66.7522 47.3272 67.4666 48.5998C67.9982 49.5469 68.6426 50.4771 69.3786 51.5395L69.38 51.5415C69.668 51.9572 69.97 52.3932 70.2848 52.8584C72.4564 56.0675 74.8257 60.1108 74.8257 65.8389C74.8257 70.7253 73.1049 74.8455 70.8291 77.9428C68.5779 81.0066 65.707 83.1718 63.2402 84.0898C62.8411 84.2383 62.3346 84.7121 62.0411 85.3303C61.1107 87.29 59.2356 88.7338 57.0698 89.6742C54.8732 90.628 52.191 91.1514 49.3257 91.1514C45.7097 91.1514 43.9918 89.8349 41.2944 88.0193C39.9391 87.1072 38.7491 86.0287 37.8805 84.854C37.3994 84.2032 36.9879 83.4823 36.7196 82.7139H23.2632C21.528 82.7139 19.9763 81.9282 18.9445 80.6931C18.6049 80.7945 18.254 80.8389 17.906 80.8389C14.7754 80.8389 12.0132 78.4402 12.0132 75.2139C12.0132 74.3865 12.1948 73.6136 12.5178 72.9216C10.032 71.9875 8.26318 69.5885 8.26318 66.7764C8.26318 64.9401 9.01737 63.28 10.2329 62.0889C9.01737 60.8978 8.26318 59.2376 8.26318 57.4014C8.26318 55.052 9.49771 52.991 11.3535 51.8317C10.5883 50.7584 10.1382 49.4449 10.1382 48.0264C10.1382 44.402 13.0763 41.4639 16.7007 41.4639C17.0186 41.4639 17.3323 41.4868 17.6382 41.537V22.7139ZM57.0132 77.0889V37.7212L57.0136 37.7028C57.0142 37.68 57.0157 37.6394 57.019 37.5836C57.0257 37.4714 57.0397 37.3011 57.0686 37.0929C57.1278 36.6668 57.2428 36.1316 57.4549 35.6225C57.6677 35.1117 57.9454 34.7052 58.287 34.4319C58.5993 34.1821 59.0606 33.9639 59.8257 33.9639C60.5907 33.9639 61.0521 34.1821 61.3643 34.4319C61.706 34.7052 61.9836 35.1117 62.1965 35.6225C62.4086 36.1316 62.5236 36.6668 62.5828 37.0929C62.6117 37.3011 62.6257 37.4714 62.6323 37.5836C62.6357 37.6394 62.6371 37.68 62.6378 37.7028L62.6382 37.7217V45.2139C62.6382 47.1675 63.3288 48.8896 64.1965 50.4354C64.8217 51.5491 65.6172 52.6972 66.3905 53.8132C66.6585 54.1998 66.9245 54.5838 67.1791 54.96C69.2262 57.9852 71.0757 61.2544 71.0757 65.8389C71.0757 69.8152 69.6805 73.1728 67.8072 75.7223C65.9093 78.3052 63.5979 79.9554 61.9322 80.5753C60.3902 81.1492 59.2482 82.4694 58.6535 83.722C58.2506 84.5706 57.2636 85.5018 55.5763 86.2345C53.9197 86.9537 51.7577 87.4014 49.3257 87.4014C46.5667 87.4014 45.5659 86.3741 43.3883 84.9084C42.3484 84.2085 41.5238 83.4457 40.9631 82.7139H51.3882C54.4948 82.7139 57.0132 80.1955 57.0132 77.0889ZM53.2632 22.7139V77.0889C53.2632 78.1244 52.4237 78.9639 51.3882 78.9639H23.2632C22.2277 78.9639 21.3882 78.1244 21.3882 77.0889V75.6871C21.3883 75.6335 21.3884 75.5806 21.3884 75.5285C21.3884 75.4728 21.3883 75.4179 21.3883 75.364L21.3882 75.2139L21.3883 75.0638C21.3884 74.9594 21.3885 74.8514 21.3882 74.7407V22.7139C21.3882 21.6783 22.2277 20.8389 23.2632 20.8389H51.3882C52.4237 20.8389 53.2632 21.6783 53.2632 22.7139ZM17.6382 57.4014C17.6382 55.8481 16.379 54.5889 14.8257 54.5889C13.2724 54.5889 12.0132 55.8481 12.0132 57.4014C12.0132 58.9547 13.2724 60.2139 14.8257 60.2139C16.379 60.2139 17.6382 58.9547 17.6382 57.4014ZM14.8257 63.9639C13.2724 63.9639 12.0132 65.2231 12.0132 66.7764C12.0132 68.3297 13.2724 69.5889 14.8257 69.5889C16.379 69.5889 17.6382 68.3297 17.6382 66.7764C17.6382 65.2231 16.379 63.9639 14.8257 63.9639ZM17.616 73.859C17.6376 74.2452 17.6382 74.6831 17.6382 75.2139C17.6382 75.7446 17.6376 76.1825 17.616 76.5687C17.6044 76.7753 17.588 76.9387 17.5692 77.0669C16.4569 76.9189 15.7632 76.0483 15.7632 75.2139C15.7632 74.3794 16.4569 73.5089 17.5692 73.3609C17.588 73.489 17.6044 73.6525 17.616 73.859ZM17.3662 45.4775C17.5575 45.905 17.6382 46.6761 17.6382 48.0264C17.6382 49.3766 17.5575 50.1477 17.3662 50.5752C17.3019 50.719 17.2577 50.7441 17.2497 50.7486C17.2328 50.759 17.0969 50.8389 16.7007 50.8389C15.1474 50.8389 13.8882 49.5797 13.8882 48.0264C13.8882 46.4731 15.1474 45.2139 16.7007 45.2139C17.0969 45.2139 17.232 45.2932 17.2488 45.3036C17.2568 45.3081 17.3019 45.3337 17.3662 45.4775Z" fill="black"/>
<path d="M66.3877 37.8457C66.3877 37.8457 66.388 37.6726 66.3865 37.6062L66.3872 37.6356L66.3879 37.6725L66.3881 37.6974L66.3882 37.7067L66.3877 37.8457Z" fill="black"/>
</svg>
