<svg width="90" height="82" viewBox="0 0 90 82" fill="none" xmlns="http://www.w3.org/2000/svg">
<path fill-rule="evenodd" clip-rule="evenodd" d="M42.3573 12.0488C42.3573 5.87877 47.3591 0.876953 53.5292 0.876953C59.6992 0.876953 64.7011 5.87877 64.7011 12.0488C64.7011 18.2189 59.6992 23.2207 53.5292 23.2207C47.3591 23.2207 42.3573 18.2189 42.3573 12.0488ZM53.5292 4.93945C49.6028 4.93945 46.4198 8.12243 46.4198 12.0488C46.4198 15.9752 49.6028 19.1582 53.5292 19.1582C57.4556 19.1582 60.6386 15.9752 60.6386 12.0488C60.6386 8.12243 57.4556 4.93945 53.5292 4.93945Z" fill="black"/>
<path d="M37.1352 19.6458C38.1485 19.1645 38.5797 17.9528 38.0983 16.9395C37.6169 15.9262 36.4053 15.495 35.392 15.9763C32.3085 17.4411 30.1698 20.5869 30.1698 24.2363C30.1698 29.2845 34.2622 33.3769 39.3104 33.3769C42.9598 33.3769 46.1056 31.2382 47.5704 28.1548C48.0518 27.1415 47.6206 25.9298 46.6073 25.4484C45.5939 24.967 44.3823 25.3983 43.9009 26.4116C43.0837 28.1319 41.3331 29.3144 39.3104 29.3144C36.5059 29.3144 34.2323 27.0409 34.2323 24.2363C34.2323 22.2136 35.4148 20.4631 37.1352 19.6458Z" fill="black"/>
<path fill-rule="evenodd" clip-rule="evenodd" d="M16.0811 38.3379C12.2811 36.832 9.17207 37.1284 6.82696 38.5443C4.4592 39.9739 3.24101 42.3265 2.80859 44.0562C2.59654 44.9044 2.95104 45.7931 3.68867 46.2625L7.10389 48.4359C6.78841 48.53 6.48126 48.6373 6.18302 48.7566C3.41912 49.8621 1.31362 52.0673 0.777344 54.2124C0.563817 55.0665 0.924813 55.9609 1.67139 56.4275L25.8073 71.5125C28.9119 74.8774 37.1371 81.1113 47.4354 81.1113C60.4983 81.1113 68.5649 77.2308 72.9342 73.1196C73.4715 75.9358 75.9471 78.0645 78.9198 78.0645H82.9823C86.3478 78.0645 89.0761 75.3362 89.0761 71.9707V45.5645C89.0761 42.199 86.3478 39.4707 82.9823 39.4707H78.9198C76.5217 39.4707 74.4471 40.856 73.4526 42.87C72.7702 42.2315 71.9936 41.6056 71.1154 41.0526C68.3867 39.3345 64.7739 38.3743 60.1459 39.5314C59.0575 39.8035 58.3959 40.9063 58.668 41.9946C58.9401 43.083 60.0429 43.7447 61.1312 43.4726C64.6282 42.5983 67.1092 43.3308 68.9508 44.4904C70.6358 45.5513 71.8599 47.0129 72.8261 48.2769V66.5312C71.5516 69.6674 65.0411 77.0488 47.4354 77.0488C39.476 77.0488 32.7955 72.5845 29.659 69.6294C30.3377 68.7239 31.4055 67.7475 32.8975 67.1101C34.9902 66.2161 38.1386 65.8965 42.5917 67.7519C42.8392 67.8551 43.1048 67.9082 43.3729 67.9082H47.4354C48.4919 67.9082 49.3719 67.0984 49.4597 66.0456C49.5903 64.4781 50.4552 61.9023 52.7257 59.7261C54.9486 57.5955 58.6543 55.7206 64.7011 55.7206C65.8229 55.7206 66.7323 54.8112 66.7323 53.6893C66.7323 52.5675 65.8229 51.6581 64.7011 51.6581C57.7478 51.6581 52.9899 53.8457 49.9147 56.7932C47.5829 59.0282 46.2949 61.6286 45.731 63.8457H43.7709C38.6495 61.8047 34.4788 62.0168 31.3015 63.3742C29.1421 64.2968 27.5375 65.7085 26.4576 67.1283L5.47429 54.0137C5.96518 53.4884 6.69711 52.9264 7.69178 52.5285C9.4164 51.8387 11.8858 51.6885 14.9032 53.3991L26.0324 60.4813C26.9789 61.0835 28.2344 60.8045 28.8366 59.8581C29.4389 58.9116 29.1599 57.6562 28.2135 57.0539L7.28778 43.7376C7.66224 43.0906 8.20564 42.4575 8.92674 42.0221C10.0194 41.3624 11.8987 40.9297 15.0454 42.3069C15.0659 42.3193 15.0972 42.3383 15.1411 42.3657C15.2649 42.4429 15.4401 42.5548 15.6642 42.7C16.1106 42.9891 16.7231 43.3921 17.4488 43.8729C18.8986 44.8336 20.7813 46.0926 22.6493 47.3458C24.5166 48.5986 26.3666 49.8436 27.7498 50.7757C28.4414 51.2416 29.0162 51.6293 29.4181 51.9004L30.0481 52.3255C30.9778 52.9533 32.241 52.709 32.8688 51.7793C33.4966 50.8496 33.2517 49.5868 32.322 48.9591L31.6901 48.5326C31.2877 48.2611 30.7122 47.873 30.0199 47.4066C28.6353 46.4737 26.783 45.227 24.9126 43.9722C23.0429 42.7178 21.1525 41.4536 19.6927 40.4863L19.6052 40.4284C19.6377 40.3883 19.6708 40.3478 19.7046 40.3071C20.1783 39.7358 20.7233 39.1803 21.3659 38.7672C21.9889 38.3667 22.7014 38.1004 23.5613 38.0899C24.4097 38.0796 25.5457 38.3168 27.0248 39.1431L30.9823 42.1113C31.8798 42.7844 33.153 42.6025 33.8261 41.7051C34.4992 40.8076 34.3173 39.5344 33.4198 38.8613L29.3573 35.8144C29.2899 35.7639 29.2195 35.7176 29.1463 35.6758C27.1226 34.5194 25.2457 34.0066 23.5117 34.0277C21.7691 34.049 20.3234 34.6079 19.1691 35.3499C18.0343 36.0794 17.1828 36.9839 16.5774 37.7139C16.3934 37.9357 16.2262 38.1491 16.0811 38.3379ZM31.1854 50.6426C32.3222 48.9592 32.322 48.9591 32.322 48.9591L31.1854 50.6426ZM76.8886 47.6161V66.8451L76.8891 66.8787C76.8892 66.8989 76.889 66.9191 76.8886 66.9394V71.9707C76.8886 73.0925 77.798 74.002 78.9198 74.002H82.9823C84.1041 74.002 85.0136 73.0925 85.0136 71.9707V45.5645C85.0136 44.4426 84.1041 43.5332 82.9823 43.5332H78.9198C77.798 43.5332 76.8886 44.4426 76.8886 45.5645V47.5724C76.8887 47.587 76.8887 47.6015 76.8886 47.6161Z" fill="black"/>
<path fill-rule="evenodd" clip-rule="evenodd" d="M36.2636 44.5488C36.2636 39.5006 40.356 35.4082 45.4042 35.4082C50.4524 35.4082 54.5448 39.5006 54.5448 44.5488C54.5448 49.5971 50.4524 53.6895 45.4042 53.6895C40.356 53.6895 36.2636 49.5971 36.2636 44.5488ZM45.4042 39.4707C42.5996 39.4707 40.3261 41.7443 40.3261 44.5488C40.3261 47.3534 42.5996 49.627 45.4042 49.627C48.2088 49.627 50.4823 47.3534 50.4823 44.5488C50.4823 41.7443 48.2088 39.4707 45.4042 39.4707Z" fill="black"/>
</svg>
